<?xml version="1.0" encoding="UTF-8" standalone="no"?>
<svg width="151px" height="101px" viewBox="0 0 151 101" version="1.1" xmlns="http://www.w3.org/2000/svg" xmlns:xlink="http://www.w3.org/1999/xlink">
    <!-- Generator: Sketch 46.2 (44496) - http://www.bohemiancoding.com/sketch -->
    <title>vehicle2a</title>
    <desc>Created with Sketch.</desc>
    <defs></defs>
    <g id="Page-1" stroke="none" stroke-width="1" fill="none" fill-rule="evenodd">
        <g id="vehicle2a" transform="translate(74.649346, 50.750943) rotate(90.000000) translate(-74.649346, -50.750943) translate(24.149346, -24.749057)">
            <g id="Rectangle" transform="translate(10.377358, 16.666667)">
                <g id="path-1-link" fill-rule="nonzero" fill="#F0F0F0">
                    <rect id="path-1" x="0" y="0" width="79.245283" height="133.333333" rx="2"></rect>
                </g>
                <rect id="Rectangle-path" stroke="#3B3B3B" stroke-width="1.5" x="0.70754717" y="0.735294118" width="77.8301887" height="131.862745" rx="2"></rect>
            </g>
            <g id="Rectangle" transform="translate(0.000000, 102.941176)">
                <g id="path-2-link" fill-rule="nonzero" fill="#F0F0F0">
                    <rect id="path-2" x="0" y="0" width="22.6415094" height="41.1764706" rx="2"></rect>
                </g>
                <rect id="Rectangle-path" stroke="#3B3B3B" stroke-width="1.5" fill="#636363" x="0.70754717" y="0.735294118" width="21.2264151" height="39.7058824" rx="2"></rect>
            </g>
            <g id="Rectangle" transform="translate(77.358491, 102.941176)">
                <g id="path-3-link" fill-rule="nonzero" fill="#F0F0F0">
                    <rect id="path-3" x="0" y="0" width="22.6415094" height="41.1764706" rx="2"></rect>
                </g>
                <rect id="Rectangle-path" stroke="#3B3B3B" stroke-width="1.5" fill="#636363" x="0.70754717" y="0.735294118" width="21.2264151" height="39.7058824" rx="2"></rect>
            </g>
            <path d="M81.7547205,0 C77.9896029,5.59754414 74.1632629,8.39631621 70.2757004,8.39631621 C66.3881377,8.39631621 62.4597596,5.59754414 58.490566,0" id="Path-2" stroke="#3B3B3B" stroke-width="1.5"></path>
            <path d="M40.6415111,0 C36.8763937,5.59754414 33.0500537,8.39631621 29.162491,8.39631621 C25.2749285,8.39631621 21.3465504,5.59754414 17.3773568,0" id="Path-2" stroke="#3B3B3B" stroke-width="1.5"></path>
            <path d="M69.8113208,8.5592235 C69.8113208,69.9111115 69.8113208,103.005749 69.8113208,107.843137 C69.8113208,112.680525 72.4468891,115.09922 77.7180258,115.09922" id="Path-4" stroke="#3B3B3B" stroke-width="1.5"></path>
            <path d="M21.6981131,8.82352941 C21.6981131,70.1754174 21.6981131,103.270055 21.6981131,108.107443 C21.6981131,112.944831 24.3336814,115.363525 29.6048181,115.363525" id="Path-4" stroke="#3B3B3B" stroke-width="1.5" transform="translate(25.651466, 62.093527) scale(-1, 1) translate(-25.651466, -62.093527) "></path>
            <g id="+" transform="translate(23.584906, 115.686275)" font-size="19.1578947" font-family="AvenirNext-Regular, Avenir Next" fill="#3B3B3B" font-weight="normal">
                <g id="Group">
                    <text id="+">
                        <tspan x="0" y="19">+</tspan>
                    </text>
                </g>
            </g>
            <g id="+" transform="translate(65.094340, 118.627451)" font-size="19.1578947" font-family="AvenirNext-Regular, Avenir Next" fill="#3B3B3B" font-weight="normal">
                <g id="Group">
                    <text id="+">
                        <tspan x="0" y="19.2001">+</tspan>
                    </text>
                </g>
            </g>
        </g>
    </g>
</svg>