<?xml version="1.0" encoding="UTF-8" standalone="no"?>
<svg width="150px" height="100px" viewBox="0 0 150 100" version="1.1" xmlns="http://www.w3.org/2000/svg" xmlns:xlink="http://www.w3.org/1999/xlink">
    <!-- Generator: Sketch 46.2 (44496) - http://www.bohemiancoding.com/sketch -->
    <title>Group</title>
    <desc>Created with Sketch.</desc>
    <defs></defs>
    <g id="Page-1" stroke="none" stroke-width="1" fill="none" fill-rule="evenodd">
        <g id="Group" transform="translate(-1.000000, 0.000000)">
            <g id="vehicle2b" transform="translate(75.540363, 50.071796) rotate(90.000000) translate(-75.540363, -50.071796) translate(25.540363, -24.928204)">
                <g id="Rectangle" transform="translate(10.274612, 16.556292)">
                    <g id="path-1-link" fill-rule="nonzero" fill="#F0F0F0">
                        <rect id="path-1" x="0" y="0" width="78.4606762" height="132.450331" rx="2"></rect>
                    </g>
                    <rect id="Rectangle-path" stroke="#E7E7E7" stroke-width="1.5" fill="#636363" x="0.700541752" y="0.730424621" width="77.0595928" height="130.989482" rx="2"></rect>
                </g>
                <g id="Rectangle" transform="translate(0.000000, 102.259446)" fill-rule="nonzero">
                    <g id="path-2-link" fill="#F0F0F0">
                        <rect id="path-2" x="0" y="0" width="22.417336" height="40.9037787" rx="2"></rect>
                    </g>
                    <rect id="Rectangle-path" stroke="#E7E7E7" stroke-width="1.5" fill="#727272" x="0.700541752" y="0.730424621" width="21.0162526" height="39.4429295" rx="2"></rect>
                </g>
                <g id="Rectangle" transform="translate(76.592565, 102.259446)" fill-rule="nonzero">
                    <g id="path-3-link" fill="#F0F0F0">
                        <rect id="path-3" x="0" y="0" width="22.417336" height="40.9037787" rx="2"></rect>
                    </g>
                    <rect id="Rectangle-path" stroke="#E7E7E7" stroke-width="1.5" fill="#727272" x="0.700541752" y="0.730424621" width="21.0162526" height="39.4429295" rx="2"></rect>
                </g>
                <path d="M80.9452678,0 C77.2174286,5.56047431 73.4289732,8.34071147 69.5799014,8.34071147 C65.7308294,8.34071147 61.8413461,5.56047431 57.9114515,0" id="Path-2" stroke="#E7E7E7" stroke-width="1.5"></path>
                <path d="M39.8468183,0 C36.1189792,5.56047431 32.3305238,8.34071147 28.4814519,8.34071147 C24.63238,8.34071147 20.7428967,5.56047431 16.8130021,0" id="Path-2" stroke="#E7E7E7" stroke-width="1.5"></path>
                <g id="+" transform="translate(23.351392, 114.920141)" font-size="19.1578947" font-family="AvenirNext-Regular, Avenir Next" fill="#E7E7E7" font-weight="normal">
                    <text>
                        <tspan x="0" y="19">+</tspan>
                    </text>
                </g>
                <g id="+" transform="translate(62.581730, 114.920141)" font-size="19.1578947" font-family="AvenirNext-Regular, Avenir Next" fill="#E7E7E7" font-weight="normal">
                    <text>
                        <tspan x="0" y="19">+</tspan>
                    </text>
                </g>
            </g>
            <path d="M84.3166457,20.6833543 C84.3166457,82.0352423 84.3166457,115.12988 84.3166457,119.967268 C84.3166457,124.804656 86.952214,127.223351 92.2233507,127.223351" id="Path-4" stroke="#E7E7E7" stroke-width="1.5" transform="translate(88.269998, 73.953353) rotate(90.000000) translate(-88.269998, -73.953353) "></path>
            <path d="M84.3166453,-28.3166453 C84.3166453,33.0352427 84.3166453,66.1298803 84.3166453,70.9672683 C84.3166453,75.8046563 86.9522136,78.2233503 92.2233503,78.2233503" id="Path-4" stroke="#E7E7E7" stroke-width="1.5" transform="translate(88.269998, 24.953353) scale(-1, 1) rotate(270.000000) translate(-88.269998, -24.953353) "></path>
        </g>
    </g>
</svg>