<?xml version="1.0" encoding="UTF-8" standalone="no"?>
<svg width="151px" height="101px" viewBox="0 0 151 101" version="1.1" xmlns="http://www.w3.org/2000/svg" xmlns:xlink="http://www.w3.org/1999/xlink">
    <!-- Generator: Sketch 46.2 (44496) - http://www.bohemiancoding.com/sketch -->
    <title>vehicle2b</title>
    <desc>Created with Sketch.</desc>
    <defs></defs>
    <g id="Page-1" stroke="none" stroke-width="1" fill="none" fill-rule="evenodd">
        <g id="vehicle2b" transform="translate(75.540363, 50.071796) rotate(90.000000) translate(-75.540363, -50.071796) translate(25.540363, -24.928204)">
            <g id="Rectangle" transform="translate(10.377358, 16.666667)">
                <g id="path-1-link" fill="#F0F0F0">
                    <rect id="path-1" x="0" y="0" width="79.245283" height="133.333333" rx="2"></rect>
                </g>
                <rect id="Rectangle-path" stroke="#3B3B3B" stroke-width="1.5" x="0.70754717" y="0.735294118" width="77.8301887" height="131.862745" rx="2"></rect>
            </g>
            <g id="Rectangle" transform="translate(0.000000, 102.941176)">
                <g id="path-2-link" fill="#F0F0F0">
                    <rect id="path-2" x="0" y="0" width="22.6415094" height="41.1764706" rx="2"></rect>
                </g>
                <rect id="Rectangle-path" stroke="#3B3B3B" stroke-width="1.5" fill="#636363" x="0.70754717" y="0.735294118" width="21.2264151" height="39.7058824" rx="2"></rect>
            </g>
            <g id="Rectangle" transform="translate(77.358491, 102.941176)">
                <g id="path-3-link" fill="#F0F0F0">
                    <rect id="path-3" x="0" y="0" width="22.6415094" height="41.1764706" rx="2"></rect>
                </g>
                <rect id="Rectangle-path" stroke="#3B3B3B" stroke-width="1.5" fill="#636363" x="0.70754717" y="0.735294118" width="21.2264151" height="39.7058824" rx="2"></rect>
            </g>
            <path d="M81.7547205,0 C77.9896029,5.59754414 74.1632629,8.39631621 70.2757004,8.39631621 C66.3881377,8.39631621 62.4597596,5.59754414 58.490566,0" id="Path-2" stroke="#3B3B3B" stroke-width="1.5"></path>
            <path d="M40.2452865,0 C36.480169,5.59754414 32.653829,8.39631621 28.7662664,8.39631621 C24.8787038,8.39631621 20.9503257,5.59754414 16.9811321,0" id="Path-2" stroke="#3B3B3B" stroke-width="1.5"></path>
            <g id="+" transform="translate(23.584906, 115.686275)" font-size="19.1578947" font-family="AvenirNext-Regular, Avenir Next" fill="#3B3B3B" font-weight="normal">
                <text>
                    <tspan x="0" y="19">+</tspan>
                </text>
            </g>
            <g id="+" transform="translate(63.207547, 115.686275)" font-size="19.1578947" font-family="AvenirNext-Regular, Avenir Next" fill="#3B3B3B" font-weight="normal">
                <text>
                    <tspan x="0" y="19">+</tspan>
                </text>
            </g>
            <path d="M78.143754,115.664506 C78.8031068,115.69353 77.4005242,115.69353 73.9360062,115.664506 C50.0343091,115.46426 28.5796091,105.990761 28.5796091,47.7390979 C28.5796091,28.1972511 28.5796091,15.049476 28.5796091,8.29577269" id="Path-6" stroke="#3B3B3B" stroke-width="1.5"></path>
            <path d="M70.3211874,115.21187 C70.9708445,115.240895 69.588887,115.240895 66.1753149,115.21187 C42.6250937,115.011624 21.4858864,105.538125 21.4858864,47.2864625 C21.4858864,27.7446157 21.4858864,14.5968406 21.4858864,7.84313725" id="Path-6" stroke="#3B3B3B" stroke-width="1.5" transform="translate(45.981441, 61.538388) scale(-1, 1) translate(-45.981441, -61.538388) "></path>
        </g>
    </g>
</svg>