<?xml version="1.0" encoding="UTF-8" standalone="no"?>
<svg width="150px" height="100px" viewBox="0 0 150 100" version="1.1" xmlns="http://www.w3.org/2000/svg" xmlns:xlink="http://www.w3.org/1999/xlink">
    <!-- Generator: Sketch 46.2 (44496) - http://www.bohemiancoding.com/sketch -->
    <title>vehicle2b</title>
    <desc>Created with Sketch.</desc>
    <defs></defs>
    <g id="Page-1" stroke="none" stroke-width="1" fill="none" fill-rule="evenodd">
        <g id="vehicle2b" transform="translate(74.540363, 50.071796) rotate(90.000000) translate(-74.540363, -50.071796) translate(24.540363, -24.928204)">
            <g id="Rectangle" transform="translate(10.274612, 16.556292)">
                <g id="path-1-link" fill-rule="nonzero" fill="#F0F0F0">
                    <rect id="path-1" x="0" y="0" width="78.4606762" height="132.450331" rx="2"></rect>
                </g>
                <rect id="Rectangle-path" stroke="#E7E7E7" stroke-width="1.5" fill="#636363" x="0.700541752" y="0.730424621" width="77.0595928" height="130.989482" rx="2"></rect>
            </g>
            <g id="Rectangle" transform="translate(0.000000, 102.259446)" fill-rule="nonzero">
                <g id="path-2-link" fill="#F0F0F0">
                    <rect id="path-2" x="0" y="0" width="22.417336" height="40.9037787" rx="2"></rect>
                </g>
                <rect id="Rectangle-path" stroke="#E7E7E7" stroke-width="1.5" fill="#727272" x="0.700541752" y="0.730424621" width="21.0162526" height="39.4429295" rx="2"></rect>
            </g>
            <g id="Rectangle" transform="translate(76.592565, 102.259446)" fill-rule="nonzero">
                <g id="path-3-link" fill="#F0F0F0">
                    <rect id="path-3" x="0" y="0" width="22.417336" height="40.9037787" rx="2"></rect>
                </g>
                <rect id="Rectangle-path" stroke="#E7E7E7" stroke-width="1.5" fill="#727272" x="0.700541752" y="0.730424621" width="21.0162526" height="39.4429295" rx="2"></rect>
            </g>
            <path d="M80.9452678,0 C77.2174286,5.56047431 73.4289732,8.34071147 69.5799014,8.34071147 C65.7308294,8.34071147 61.8413461,5.56047431 57.9114515,0" id="Path-2" stroke="#E7E7E7" stroke-width="1.5"></path>
            <path d="M39.8468183,0 C36.1189792,5.56047431 32.3305238,8.34071147 28.4814519,8.34071147 C24.63238,8.34071147 20.7428967,5.56047431 16.8130021,0" id="Path-2" stroke="#E7E7E7" stroke-width="1.5"></path>
            <g id="+" transform="translate(23.351392, 114.920141)" font-size="19.1578947" font-family="AvenirNext-Regular, Avenir Next" fill="#E7E7E7" font-weight="normal">
                <text>
                    <tspan x="0" y="19">+</tspan>
                </text>
            </g>
            <g id="+" transform="translate(62.581730, 114.920141)" font-size="19.1578947" font-family="AvenirNext-Regular, Avenir Next" fill="#E7E7E7" font-weight="normal">
                <text>
                    <tspan x="0" y="19">+</tspan>
                </text>
            </g>
            <path d="M77.3700535,114.898516 C78.022878,114.927348 76.6341824,114.927348 73.2039665,114.898516 C49.5389199,114.699596 28.2966427,105.288835 28.2966427,47.4229449 C28.2966427,28.0105143 28.2966427,14.9498106 28.2966427,8.2408338" id="Path-6" stroke="#E7E7E7" stroke-width="1.5"></path>
            <path d="M69.6249387,114.448877 C70.2681636,114.47771 68.8998888,114.47771 65.5201145,114.448877 C42.2030638,114.249958 21.2731556,104.839197 21.2731556,46.9733071 C21.2731556,27.5608765 21.2731556,14.5001728 21.2731556,7.79119594" id="Path-6" stroke="#E7E7E7" stroke-width="1.5" transform="translate(45.526180, 61.130849) scale(-1, 1) translate(-45.526180, -61.130849) "></path>
        </g>
    </g>
</svg>