<?xml version="1.0" encoding="UTF-8" standalone="no"?>
<svg width="150px" height="100px" viewBox="0 0 150 100" version="1.1" xmlns="http://www.w3.org/2000/svg" xmlns:xlink="http://www.w3.org/1999/xlink">
    <!-- Generator: Sketch 46.2 (44496) - http://www.bohemiancoding.com/sketch -->
    <title>3a_dark</title>
    <desc>Created with Sketch.</desc>
    <defs></defs>
    <g id="Page-1" stroke="none" stroke-width="1" fill="none" fill-rule="evenodd">
        <g id="3a_dark" transform="translate(-1.000000, 0.000000)">
            <g id="vehicle2b" transform="translate(75.540363, 50.071796) rotate(90.000000) translate(-75.540363, -50.071796) translate(25.540363, -24.928204)">
                <g id="Rectangle" transform="translate(10.274612, 8.556292)">
                    <g id="path-1-link" transform="translate(-0.000000, 8.000000)" fill-rule="nonzero" fill="#F0F0F0">
                        <rect id="path-1" x="0" y="0" width="78.4606762" height="132.450331" rx="2"></rect>
                    </g>
                    <rect id="Rectangle-path" stroke="#E7E7E7" stroke-width="1.5" fill="#636363" fill-rule="nonzero" x="0.700541752" y="8.73042462" width="77.0595928" height="130.989482" rx="2"></rect>
                    <path d="M10.3369468,0 C10.3369468,61.351888 10.3369468,94.4465256 10.3369468,99.2839136 C10.3369468,104.121302 12.9725151,106.539996 18.2436518,106.539996" id="Path-4" stroke="#E7E7E7" stroke-width="1.5" transform="translate(14.290299, 53.269998) scale(-1, 1) translate(-14.290299, -53.269998) "></path>
                    <path d="M60,0 C60,61.351888 60,94.4465257 60,99.2839137 C60,104.121302 62.6355683,106.539997 67.906705,106.539997" id="Path-4" stroke="#E7E7E7" stroke-width="1.5"></path>
                </g>
                <g id="Rectangle" transform="translate(-0.000000, 102.259446)" fill-rule="nonzero">
                    <g id="path-2-link" fill="#F0F0F0">
                        <rect id="path-2" x="0" y="0" width="22.417336" height="40.9037787" rx="2"></rect>
                    </g>
                    <rect id="Rectangle-path" stroke="#E7E7E7" stroke-width="1.5" fill="#727272" x="0.700541752" y="0.730424621" width="21.0162526" height="39.4429295" rx="2"></rect>
                </g>
                <g id="Rectangle" transform="translate(76.592565, 102.259446)" fill-rule="nonzero">
                    <g id="path-3-link" fill="#F0F0F0">
                        <rect id="path-3" x="0" y="0" width="22.417336" height="40.9037787" rx="2"></rect>
                    </g>
                    <rect id="Rectangle-path" stroke="#E7E7E7" stroke-width="1.5" fill="#727272" x="0.700541752" y="0.730424621" width="21.0162526" height="39.4429295" rx="2"></rect>
                </g>
                <path d="M80.9452678,0 C77.2174286,5.56047431 73.4289732,8.34071147 69.5799014,8.34071147 C65.7308294,8.34071147 61.8413461,5.56047431 57.9114515,0" id="Path-2" stroke="#E7E7E7" stroke-width="1.5"></path>
                <path d="M39.8468183,0 C36.1189792,5.56047431 32.3305238,8.34071147 28.4814519,8.34071147 C24.63238,8.34071147 20.7428967,5.56047431 16.8130021,0" id="Path-2" stroke="#E7E7E7" stroke-width="1.5"></path>
                <g id="+" transform="translate(24.581730, 103.920141)" font-size="30" font-family="AvenirNext-Regular, Avenir Next" fill="#E7E7E7" font-weight="normal">
                    <g id="-" transform="translate(40.000000, 0.000000)">
                        <text>
                            <tspan x="0.3464743" y="30.1202223">-</tspan>
                        </text>
                    </g>
                    <g id="-">
                        <text>
                            <tspan x="0.346474297" y="30.1202223">-</tspan>
                        </text>
                    </g>
                </g>
            </g>
        </g>
    </g>
</svg>