<?xml version="1.0" encoding="UTF-8" standalone="no"?>
<svg width="150px" height="100px" viewBox="0 0 150 100" version="1.1" xmlns="http://www.w3.org/2000/svg" xmlns:xlink="http://www.w3.org/1999/xlink">
    <!-- Generator: Sketch 46.2 (44496) - http://www.bohemiancoding.com/sketch -->
    <title>Group 2</title>
    <desc>Created with Sketch.</desc>
    <defs></defs>
    <g id="Page-1" stroke="none" stroke-width="1" fill="none" fill-rule="evenodd">
        <g id="Group-2" transform="translate(-2.000000, 0.000000)">
            <g id="Rectangle" transform="translate(72.484071, 50.346408) rotate(90.000000) translate(-72.484071, -50.346408) translate(32.484071, -21.153592)">
                <g id="path-1-link" transform="translate(-0.000000, 9.000000)" fill-rule="nonzero" fill="#F0F0F0">
                    <rect id="path-1" x="0" y="0" width="78.4606762" height="132.450331" rx="2"></rect>
                </g>
                <rect id="Rectangle-path" stroke="#E7E7E7" stroke-width="1.5" fill="#636363" x="0.700541752" y="9.73042462" width="77.0595928" height="130.989482" rx="2"></rect>
                <path d="M66.5009367,109.961867 C67.1374509,109.991473 65.7834509,109.991473 62.4389367,109.961867 C39.3651453,109.757616 18.6535921,100.094648 18.6535921,40.6779512 C18.6535921,20.7452674 18.6535921,7.33453678 18.6535921,0.445759417" id="Path-6" stroke="#E7E7E7" stroke-width="1.5"></path>
                <path d="M59.5009367,109.961867 C60.1374509,109.991473 58.7834509,109.991473 55.4389367,109.961867 C32.3651453,109.757616 11.6535921,100.094648 11.6535921,40.6779512 C11.6535921,20.7452674 11.6535921,7.33453678 11.6535921,0.445759417" id="Path-6-Copy" stroke="#E7E7E7" stroke-width="1.5" transform="translate(35.653592, 55.214915) scale(-1, 1) translate(-35.653592, -55.214915) "></path>
            </g>
            <g id="Rectangle" transform="translate(28.419989, 11.457935) rotate(90.000000) translate(-28.419989, -11.457935) translate(17.033851, -9.402993)" fill-rule="nonzero">
                <g id="path-2-link" fill="#F0F0F0">
                    <rect id="path-2" x="0" y="0" width="22.417336" height="40.9037787" rx="2"></rect>
                </g>
                <rect id="Rectangle-path" stroke="#E7E7E7" stroke-width="1.5" fill="#727272" x="0.700541752" y="0.730424621" width="21.0162526" height="39.4429295" rx="2"></rect>
            </g>
            <g id="Rectangle" transform="translate(28.419989, 88.050500) rotate(90.000000) translate(-28.419989, -88.050500) translate(17.033851, 67.189573)" fill-rule="nonzero">
                <g id="path-3-link" fill="#F0F0F0">
                    <rect id="path-3" x="0" y="0" width="22.417336" height="40.9037787" rx="2"></rect>
                </g>
                <rect id="Rectangle-path" stroke="#E7E7E7" stroke-width="1.5" fill="#727272" x="0.700541752" y="0.730424621" width="21.0162526" height="39.4429295" rx="2"></rect>
            </g>
            <g id="Group" transform="translate(5.000000, 16.000000)">
                <path d="M153.886915,49.3297999 C150.159076,54.8902742 146.370621,57.6705114 142.521549,57.6705114 C138.672477,57.6705114 134.782994,54.8902742 130.853099,49.3297999" id="Path-2" stroke="#E7E7E7" stroke-width="1.5" transform="translate(142.370007, 53.500156) rotate(90.000000) translate(-142.370007, -53.500156) "></path>
                <path d="M153.886915,8.23135046 C150.159076,13.7918248 146.370621,16.5720619 142.521549,16.5720619 C138.672477,16.5720619 134.782994,13.7918248 130.853099,8.23135046" id="Path-2" stroke="#E7E7E7" stroke-width="1.5" transform="translate(142.370007, 12.401706) rotate(90.000000) translate(-142.370007, -12.401706) "></path>
                <text id="-" fill="#E7E7E7" transform="translate(21.000000, 55.435644) rotate(90.000000) translate(-21.000000, -55.435644) " font-family="AvenirNext-Regular, Avenir Next" font-size="30" font-weight="normal">
                    <tspan x="14.5643564" y="64.9356436">-</tspan>
                </text>
                <text id="-" fill="#E7E7E7" transform="translate(21.000000, 15.435644) rotate(90.000000) translate(-21.000000, -15.435644) " font-family="AvenirNext-Regular, Avenir Next" font-size="30" font-weight="normal">
                    <tspan x="14.5643564" y="24.9356436">-</tspan>
                </text>
            </g>
        </g>
    </g>
</svg>