<?xml version="1.0" encoding="UTF-8" standalone="no"?>
<svg width="226px" height="132px" viewBox="0 0 226 132" version="1.1" xmlns="http://www.w3.org/2000/svg" xmlns:xlink="http://www.w3.org/1999/xlink">
    <!-- Generator: Sketch 46.2 (44496) - http://www.bohemiancoding.com/sketch -->
    <title>Group 2</title>
    <desc>Created with Sketch.</desc>
    <defs></defs>
    <g id="Page-1" stroke="none" stroke-width="1" fill="none" fill-rule="evenodd">
        <g id="Group-2" transform="translate(-2.000000, 0.000000)">
            <g id="Group">
                <g id="vehicle2b" transform="translate(105.939600, 66.138888) rotate(90.000000) translate(-105.939600, -66.138888) translate(39.939600, -39.361112)">
                    <g id="Rectangle" transform="translate(13.608757, 12.588552)">
                        <g id="path-1-link" fill-rule="nonzero" fill="#F0F0F0">
                            <rect id="path-1" x="0" y="0" width="103.921425" height="196.708412" rx="2"></rect>
                        </g>
                        <rect id="Rectangle-path" stroke="#E7E7E7" stroke-width="1.5" fill="#636363" x="0.927869871" y="1.08478904" width="102.065686" height="194.538834" rx="2"></rect>
                    </g>
                    <g id="Rectangle" transform="translate(0.000000, 139.870465)" fill-rule="nonzero">
                        <g id="path-2-link" fill="#F0F0F0">
                            <rect id="path-2" x="0" y="0" width="29.6918358" height="60.7481863" rx="2"></rect>
                        </g>
                        <rect id="Rectangle-path" stroke="#E7E7E7" stroke-width="1.5" fill="#727272" x="0.927869871" y="1.08478904" width="27.8360961" height="58.5786082" rx="2"></rect>
                    </g>
                    <g id="Rectangle" transform="translate(101.447106, 139.870465)" fill-rule="nonzero">
                        <g id="path-3-link" fill="#F0F0F0">
                            <rect id="path-3" x="0" y="0" width="29.6918358" height="60.7481863" rx="2"></rect>
                        </g>
                        <rect id="Rectangle-path" stroke="#E7E7E7" stroke-width="1.5" fill="#727272" x="0.927869871" y="1.08478904" width="27.8360961" height="58.5786082" rx="2"></rect>
                    </g>
                    <path d="M102.861112,0.439599541 C101.242692,3.77293287 99.5979556,5.43959954 97.9269031,5.43959954 C96.2558504,5.43959954 94.5672534,3.77293287 92.8611121,0.439599541" id="Path-2" stroke="#E7E7E7" stroke-width="1.5"></path>
                    <path d="M38.8611121,0.439599541 C37.242692,3.77293287 35.5979557,5.43959954 33.9269031,5.43959954 C32.2558504,5.43959954 30.5672535,3.77293287 28.8611121,0.439599541" id="Path-2" stroke="#E7E7E7" stroke-width="1.5"></path>
                    <path d="M38.8611121,0.439599541 C37.242692,3.77293287 35.5979557,5.43959954 33.9269031,5.43959954 C32.2558504,5.43959954 30.5672535,3.77293287 28.8611121,0.439599541" id="Path-2" stroke="#E7E7E7" stroke-width="1.5"></path>
                    <g id="+" transform="translate(31.558582, 149.336843)" font-size="30" font-family="AvenirNext-Regular, Avenir Next" fill="#E7E7E7" font-weight="normal">
                        <text id="-">
                            <tspan x="50" y="48">-</tspan>
                        </text>
                        <text id="-">
                            <tspan x="9" y="48">-</tspan>
                        </text>
                        <text id="-">
                            <tspan x="0" y="32">-</tspan>
                        </text>
                        <text id="-">
                            <tspan x="59" y="30">-</tspan>
                        </text>
                    </g>
                    <path d="M98,5 C98,91.37867 98,137.973337 98,144.784001 C98,151.594666 99.6666666,155 103,155" id="Path-4" stroke="#E7E7E7" stroke-width="1.5"></path>
                    <path d="M29,6 C29,92.37867 29,138.973337 29,145.784001 C29,152.594666 30.6666666,156 34,156" id="Path-4" stroke="#E7E7E7" stroke-width="1.5" transform="translate(31.500000, 81.000000) scale(-1, 1) translate(-31.500000, -81.000000) "></path>
                    <path d="M28.3611121,4.52715922 C28.3611121,104.998706 28.3611121,108.96441 28.3611121,138.18934 C28.3611121,167.41427 36.6944453,179 53.3611121,179" id="Path-4" stroke="#E7E7E7" stroke-width="1.5" transform="translate(40.861112, 91.763580) scale(-1, 1) translate(-40.861112, -91.763580) "></path>
                    <path d="M77.8611121,3.52715922 C77.8611121,103.998706 77.8611121,107.96441 77.8611121,137.18934 C77.8611121,166.41427 86.1944453,178 102.861112,178" id="Path-4" stroke="#E7E7E7" stroke-width="1.5"></path>
                </g>
            </g>
            <path d="M160.813951,142.965539 C161.589703,143.011487 159.939515,143.011487 155.863389,142.965539 C127.742205,142.648548 102.5,127.651927 102.5,35.4390908 C102.5,4.50419514 102.5,-16.3088351 102.5,-27" id="Path-6" stroke="#E7E7E7" stroke-width="1.5" transform="translate(131.750000, 58.000000) scale(1, -1) rotate(90.000000) translate(-131.750000, -58.000000) "></path>
            <path d="M160.813951,157.965539 C161.589703,158.011487 159.939515,158.011487 155.863389,157.965539 C127.742205,157.648548 102.5,142.651927 102.5,50.4390908 C102.5,19.5041951 102.5,-1.30883512 102.5,-12" id="Path-6" stroke="#E7E7E7" stroke-width="1.5" transform="translate(131.750000, 73.000000) rotate(90.000000) translate(-131.750000, -73.000000) "></path>
            <path d="M141.119607,181.709661 C141.663296,181.763446 140.506754,181.763446 137.649982,181.709661 C117.941118,181.338595 100.25,163.783726 100.25,55.8404651 C100.25,19.6284402 100.25,-4.73504817 100.25,-17.25" id="Path-6" stroke="#E7E7E7" stroke-width="1.5" transform="translate(120.750000, 82.250000) rotate(90.000000) translate(-120.750000, -82.250000) "></path>
            <path d="M141.119607,148.709661 C141.663296,148.763446 140.506754,148.763446 137.649982,148.709661 C117.941118,148.338595 100.25,130.783726 100.25,22.8404651 C100.25,-13.3715598 100.25,-37.7350482 100.25,-50.25" id="Path-6" stroke="#E7E7E7" stroke-width="1.5" transform="translate(120.750000, 49.250000) scale(1, -1) rotate(90.000000) translate(-120.750000, -49.250000) "></path>
            <polyline id="Path-2" stroke="#E7E7E7" stroke-width="1.5" points="226 46.5 216 43.5 226 40.5"></polyline>
            <polyline id="Path-2" stroke="#E7E7E7" stroke-width="1.5" points="226 64.5 220 62 226 59.5"></polyline>
            <polyline id="Path-2" stroke="#E7E7E7" stroke-width="1.5" points="226 72 220 69.5 226 67"></polyline>
            <path d="M217,56.5 C210.333333,56.4794739 207,55.4794739 207,53.5 C207.098587,51.4398342 210.43192,50.4398342 217,50.5" id="Path-2" stroke="#E7E7E7" stroke-width="1.5"></path>
            <path d="M218,81.0025609 C211.333333,80.9820348 208,79.9820348 208,78.0025609 C208.098587,75.942395 211.43192,74.942395 218,75.0025609" id="Path-2" stroke="#E7E7E7" stroke-width="1.5"></path>
            <polyline id="Path-2" stroke="#E7E7E7" stroke-width="1.5" points="227 90.5 217 87.5 227 84.5"></polyline>
            <text id="+" fill="#E7E7E7" font-family="AvenirNext-Regular, Avenir Next" font-size="15" font-weight="normal">
                <tspan x="63" y="44">+</tspan>
                <tspan x="72.99" y="44" font-size="30"></tspan>
            </text>
            <text id="+" fill="#E7E7E7" font-family="AvenirNext-Regular, Avenir Next" font-size="15" font-weight="normal">
                <tspan x="48" y="48">+</tspan>
                <tspan x="57.99" y="48" font-size="30"></tspan>
            </text>
            <text id="+" fill="#E7E7E7" font-family="AvenirNext-Regular, Avenir Next" font-size="15" font-weight="normal">
                <tspan x="48" y="93">+</tspan>
                <tspan x="57.99" y="93" font-size="30"></tspan>
            </text>
            <text id="+" fill="#E7E7E7" font-family="AvenirNext-Regular, Avenir Next" font-size="15" font-weight="normal">
                <tspan x="63" y="97">+</tspan>
                <tspan x="72.99" y="97" font-size="30"></tspan>
            </text>
        </g>
    </g>
</svg>